<svg width="137" height="22" viewBox="0 0 137 22" fill="none" xmlns="http://www.w3.org/2000/svg">
<g clip-path="url(#clip0_0_260)">
<path d="M2.19214 5.75393C2.86842 4.27851 3.82727 3.13768 5.06751 2.33026C6.30775 1.52401 7.7715 1.12088 9.45758 1.12088C10.7025 1.12088 11.8037 1.35904 12.7591 1.83652C13.7156 2.314 14.5066 2.96806 15.1342 3.79871C15.7619 4.63052 16.2077 5.58664 16.4729 6.66823L16.5169 6.85991H17.6645L17.6355 6.71237C17.3808 5.40425 16.8851 4.24831 16.1498 3.24456C15.4145 2.24081 14.4776 1.45663 13.3404 0.890859C12.2021 0.327412 10.9074 0.0439453 9.45642 0.0439453C7.53526 0.0439453 5.86539 0.491218 4.44913 1.38692C3.03171 2.28147 1.93622 3.54661 1.1615 5.17887C0.38678 6.81228 0 8.73962 0 10.962V10.9911C0 13.1949 0.390254 15.1176 1.1696 16.7603C1.94895 18.403 3.04908 19.6798 4.47113 20.5894C5.89318 21.4991 7.55495 21.9545 9.45642 21.9545C10.9074 21.9545 12.2021 21.6722 13.3393 21.1064C14.4765 20.5406 15.4133 19.7565 16.1486 18.7527C16.884 17.749 17.3785 16.5942 17.6344 15.2849L17.6633 15.1374H16.5157L16.4868 15.2698C16.2216 16.3711 15.7711 17.3424 15.1342 18.1835C14.4961 19.0246 13.7029 19.6833 12.7522 20.1608C11.8014 20.6382 10.7025 20.8764 9.45758 20.8764C7.79002 20.8764 6.33671 20.4663 5.09646 19.6449C3.85622 18.8236 2.89274 17.6735 2.20603 16.1922C1.51933 14.7122 1.17655 12.9788 1.17655 10.9911V10.962C1.17655 8.965 1.51469 7.22935 2.19098 5.75393H2.19214Z" fill="black"/>
<path d="M21.5322 0.354492H20.3846V21.6458H32.6805V20.5828H21.5322V0.354492Z" fill="black"/>
<path d="M36.5785 0.354492H35.4309V21.6458H36.5785V0.354492Z" fill="black"/>
<path d="M41.6368 5.75412C42.3131 4.2787 43.2719 3.13786 44.5122 2.33045C45.7524 1.5242 47.2161 1.12107 48.9022 1.12107C50.1471 1.12107 51.2484 1.35923 52.2037 1.83671C53.1591 2.31418 53.9512 2.96825 54.5789 3.7989C55.2065 4.63071 55.6523 5.58683 55.9175 6.66841L55.9615 6.8601H57.1091L57.0802 6.71256C56.8254 5.40443 56.3298 4.24849 55.5944 3.24474C54.8591 2.24099 53.9223 1.45681 52.7851 0.891044C51.6479 0.325273 50.3532 0.0429688 48.9022 0.0429688C46.9799 0.0429688 45.3112 0.490241 43.8949 1.38595C42.4775 2.28049 41.382 3.54564 40.6073 5.17789C39.8326 6.81131 39.4458 8.73864 39.4458 10.9622V10.9913C39.4458 13.1951 39.8361 15.1178 40.6154 16.7605C41.3948 18.4032 42.496 19.68 43.9169 20.5896C45.339 21.4993 47.0007 21.9547 48.9022 21.9547C50.3532 21.9547 51.6479 21.6724 52.7851 21.1066C53.9223 20.5408 54.8591 19.7567 55.5944 18.7529C56.3298 17.7492 56.8254 16.5944 57.0802 15.2851L57.1091 15.1375H55.9615L55.9326 15.27C55.6674 16.3713 55.2169 17.3425 54.58 18.1836C53.9431 19.0248 53.1487 19.6835 52.198 20.1609C51.2472 20.6384 50.1483 20.8766 48.9034 20.8766C47.237 20.8766 45.7825 20.4665 44.5423 19.6451C43.302 18.8238 42.3385 17.6736 41.6518 16.1924C40.9651 14.7123 40.6224 12.979 40.6224 10.9913V10.9622C40.6224 8.96518 40.9605 7.22954 41.6379 5.75412H41.6368Z" fill="black"/>
<path d="M73.4639 0.354492H71.9932L61.051 12.3054H60.978V0.354492H59.8304V21.6458H60.978V13.8563L64.0271 10.5523L72.9497 21.6458H74.4354L64.8435 9.73095L73.4639 0.354492Z" fill="black"/>
<path d="M84.127 18.458H84.068L77.744 0.354492H74.9647L82.7883 21.6458H85.4066L93.2314 0.354492H90.451L84.127 18.458Z" fill="black"/>
<path d="M98.3046 0.354492H95.6573V21.6458H98.3046V0.354492Z" fill="black"/>
<path d="M111.027 9.84116L108.674 9.32418C107.291 9.0198 106.271 8.58647 105.614 8.02535C104.956 7.46422 104.629 6.75091 104.629 5.88541V5.87031C104.629 5.18255 104.822 4.58193 105.21 4.07076C105.597 3.55959 106.143 3.16111 106.85 2.87532C107.556 2.5907 108.379 2.4478 109.321 2.4478C110.223 2.4478 111.015 2.58605 111.696 2.86138C112.377 3.13672 112.929 3.53055 113.351 4.04172C113.772 4.55289 114.038 5.17326 114.145 5.90051L114.174 6.1073H116.821L116.806 5.88541C116.728 4.72482 116.363 3.70133 115.711 2.81607C115.059 1.93082 114.189 1.23958 113.101 0.743518C112.012 0.248614 110.778 0 109.395 0C107.944 0 106.656 0.253261 105.534 0.759782C104.411 1.2663 103.531 1.96451 102.894 2.85441C102.257 3.74431 101.933 4.77478 101.924 5.94582V5.96092C101.924 7.51534 102.421 8.77119 103.416 9.73079C104.411 10.6892 105.943 11.4002 108.012 11.8626L110.366 12.3784C111.827 12.7025 112.881 13.1452 113.528 13.7063C114.175 14.2674 114.498 15.0144 114.498 15.9485V15.9636C114.498 16.692 114.295 17.3263 113.888 17.8665C113.482 18.4079 112.905 18.8238 112.16 19.1131C111.416 19.4035 110.532 19.5487 109.513 19.5487C108.493 19.5487 107.594 19.4081 106.815 19.1282C106.036 18.8482 105.41 18.4497 104.94 17.9327C104.47 17.4157 104.181 16.8035 104.073 16.096L104.044 15.8892H101.397L101.412 16.096C101.5 17.3054 101.884 18.3533 102.566 19.2385C103.247 20.1238 104.169 20.8046 105.332 21.282C106.493 21.7595 107.839 21.9977 109.368 21.9977C110.986 21.9977 112.38 21.7467 113.552 21.2449C114.724 20.743 115.626 20.0297 116.259 19.1049C116.891 18.1802 117.207 17.0881 117.207 15.8288V15.8137C117.207 14.1907 116.722 12.9093 115.751 11.9706C114.781 11.0319 113.207 10.321 111.03 9.83883L111.027 9.84116Z" fill="black"/>
<path d="M134.221 21.6458H137L129.117 0.354492H128.456H127.839H126.5L118.603 21.6458H121.382L123.536 15.5525H132.074L134.222 21.6458H134.221ZM124.332 13.294L127.779 3.54116H127.838L131.276 13.294H124.332Z" fill="black"/>
</g>
<defs>
<clipPath id="clip0_0_260">
<rect width="137" height="22" fill="white"/>
</clipPath>
</defs>
</svg>
